<svg xmlns="http://www.w3.org/2000/svg" width="4640" height="1360" viewBox="0 0 4640 1360" version="1.1"><path d="" stroke="none" fill="#fcfcf4" fill-rule="evenodd"/><path d="M 515 43.043 C 461.152 43.945, 443.950 45.850, 420.621 53.494 C 409.913 57.002, 406.766 57.423, 379 59.056 C 358.107 60.285, 350.567 61.857, 343.660 66.425 C 334.594 72.420, 330.127 73.655, 312.694 74.985 C 299.572 75.987, 294.991 77.353, 289.787 81.814 C 284.147 86.651, 279.731 88.795, 273 89.965 C 262.650 91.764, 257.461 93.829, 251.338 98.584 C 247.125 101.855, 243.141 103.793, 236.226 105.934 C 227.761 108.555, 226.227 109.425, 220.667 114.759 C 215.694 119.531, 213.145 121.126, 207.500 123.001 C 201.928 124.851, 199.378 126.429, 195 130.739 C 191.975 133.717, 187.700 137.074, 185.500 138.199 C 183.300 139.324, 177.848 143.902, 173.383 148.373 C 168.919 152.843, 160.030 161.450, 153.629 167.500 C 145.325 175.349, 141.130 180.145, 138.985 184.242 C 137.332 187.400, 133.497 192.336, 130.463 195.212 C 126.783 198.700, 123.825 202.780, 121.577 207.470 C 119.724 211.337, 116.360 216.280, 114.102 218.455 C 110.707 221.725, 109.434 224.131, 106.748 232.352 C 104.035 240.656, 102.659 243.238, 98.392 248.026 C 93.794 253.185, 93.053 254.694, 90.977 263.129 C 88.145 274.634, 86.601 278.447, 82.863 283.170 C 78.785 288.323, 76.325 294.501, 75.566 301.500 C 74.308 313.083, 72.779 318.579, 68.346 327.442 C 60.916 342.300, 59.669 350.026, 58.038 391.282 C 57.034 416.686, 56.037 425.132, 50.887 451.888 C 38.630 515.569, 40.523 834.644, 53.608 910.500 C 56.663 928.211, 57.164 933.704, 57.988 958.500 C 59.560 1005.802, 60.374 1010.947, 69.902 1033.779 C 71.876 1038.511, 73.494 1044.986, 74.523 1052.279 C 76.415 1065.682, 77.192 1067.982, 82.034 1074.500 C 86.882 1081.025, 87.514 1082.335, 89.491 1089.963 C 91.662 1098.344, 94.393 1103.584, 99.152 1108.500 C 101.281 1110.700, 103.736 1114.525, 104.607 1117 C 105.478 1119.475, 106.854 1123.395, 107.663 1125.712 C 108.581 1128.335, 111.220 1131.917, 114.661 1135.212 C 117.886 1138.298, 121.568 1143.206, 123.506 1147 C 125.333 1150.575, 128.928 1155.525, 131.496 1158 C 134.064 1160.475, 137.013 1164.140, 138.049 1166.144 C 139.085 1168.148, 142.416 1171.910, 145.452 1174.503 C 148.488 1177.097, 151.945 1180.858, 153.134 1182.860 C 156.180 1187.989, 170.529 1202.498, 176.559 1206.545 C 179.341 1208.413, 183.088 1211.770, 184.885 1214.007 C 186.682 1216.243, 190.031 1219.274, 192.326 1220.742 C 194.622 1222.210, 199.200 1225.948, 202.500 1229.048 C 205.800 1232.149, 210.730 1235.672, 213.456 1236.878 C 216.182 1238.083, 221.388 1241.943, 225.026 1245.455 C 230.421 1250.664, 232.731 1252.153, 237.569 1253.545 C 245.512 1255.829, 248.624 1257.506, 254.212 1262.514 C 257.940 1265.855, 261.013 1267.403, 268.937 1269.931 C 275.805 1272.122, 280.764 1274.454, 284.725 1277.355 C 292.244 1282.861, 294.299 1283.583, 307.967 1285.513 C 315.727 1286.609, 322.030 1288.198, 327.467 1290.429 C 348.668 1299.130, 357.407 1300.470, 402.500 1301.931 C 427.551 1302.743, 436.475 1303.426, 449 1305.488 C 502.309 1314.264, 540.184 1315.986, 680 1315.986 C 819.816 1315.986, 857.691 1314.264, 911 1305.488 C 923.525 1303.426, 932.449 1302.743, 957.500 1301.931 C 1002.593 1300.470, 1011.332 1299.130, 1032.533 1290.429 C 1037.970 1288.198, 1044.273 1286.609, 1052.033 1285.513 C 1065.265 1283.644, 1067.790 1282.807, 1073.626 1278.352 C 1079.523 1273.851, 1084.560 1271.446, 1090.909 1270.100 C 1096.595 1268.894, 1105.056 1265.511, 1105.965 1264.080 C 1107.885 1261.057, 1116.011 1255.827, 1121.745 1253.925 C 1127.193 1252.117, 1129.758 1250.478, 1135 1245.457 C 1138.575 1242.033, 1144.200 1237.865, 1147.500 1236.196 C 1150.800 1234.526, 1155.335 1231.186, 1157.579 1228.772 C 1159.822 1226.359, 1164.176 1222.963, 1167.255 1221.225 C 1170.334 1219.488, 1174.269 1216.304, 1176 1214.150 C 1177.731 1211.996, 1181.212 1208.750, 1183.736 1206.938 C 1189.398 1202.871, 1204.698 1187.475, 1206.498 1184.032 C 1207.226 1182.639, 1210.555 1178.908, 1213.896 1175.739 C 1217.237 1172.570, 1220.855 1168.245, 1221.935 1166.127 C 1223.016 1164.009, 1225.989 1160.301, 1228.541 1157.888 C 1231.094 1155.474, 1234.674 1150.575, 1236.498 1147 C 1238.438 1143.198, 1242.108 1138.305, 1245.339 1135.212 C 1248.913 1131.791, 1251.418 1128.347, 1252.432 1125.462 C 1253.294 1123.008, 1254.725 1118.941, 1255.611 1116.425 C 1256.498 1113.909, 1259.016 1109.971, 1261.209 1107.675 C 1266.115 1102.537, 1268.357 1098.268, 1270.504 1089.984 C 1272.392 1082.698, 1274.238 1078.750, 1277.688 1074.616 C 1281.974 1069.483, 1283.891 1064.429, 1284.988 1055.376 C 1286.304 1044.510, 1288.126 1037.893, 1292.641 1027.578 C 1298.993 1013.068, 1300.530 1002.502, 1301.962 963.500 C 1302.968 936.131, 1303.333 933.123, 1309.960 897.599 C 1314.531 873.094, 1315.981 833.501, 1316.665 714.500 C 1317.631 546.436, 1315.514 489.717, 1306.529 443.003 C 1303.243 425.919, 1302.043 414.522, 1302.002 400 C 1301.911 367.415, 1299.052 347.701, 1291.996 331 C 1288.128 321.845, 1286.796 317.155, 1285.464 308 C 1283.560 294.902, 1282.420 291.622, 1277.724 285.710 C 1273.964 280.979, 1272.101 276.799, 1269.034 266.218 C 1267.371 260.481, 1265.900 257.806, 1262.098 253.608 C 1259.444 250.677, 1256.536 246.191, 1255.636 243.640 C 1254.736 241.088, 1253.285 236.968, 1252.412 234.485 C 1251.323 231.390, 1249.279 228.667, 1245.913 225.830 C 1242.531 222.978, 1239.867 219.420, 1237.348 214.393 C 1235.167 210.038, 1231.716 205.201, 1228.790 202.396 C 1226.093 199.812, 1223.005 195.970, 1221.928 193.859 C 1220.852 191.749, 1217.237 187.430, 1213.896 184.261 C 1210.555 181.092, 1207.156 177.225, 1206.342 175.667 C 1204.529 172.195, 1190.499 157.989, 1184.044 153.089 C 1181.443 151.115, 1177.782 147.736, 1175.908 145.580 C 1174.034 143.424, 1170.201 140.188, 1167.390 138.389 C 1164.580 136.590, 1160.530 133.252, 1158.390 130.972 C 1156.251 128.691, 1151.800 125.456, 1148.500 123.783 C 1145.110 122.064, 1139.842 118.051, 1136.390 114.558 C 1130.963 109.066, 1129.433 108.123, 1122.694 106.122 C 1116.525 104.291, 1113.980 102.865, 1109.083 98.496 C 1103.068 93.128, 1101.802 92.558, 1087 88.553 C 1083.658 87.649, 1078.834 85.115, 1074.705 82.094 C 1067.099 76.530, 1065.085 75.967, 1044.500 73.644 C 1034.245 72.487, 1029.917 71.498, 1024 68.959 C 1004.319 60.514, 1000.729 59.974, 951.500 58.046 C 927.250 57.096, 916.729 55.895, 894 51.479 C 875.682 47.920, 862.466 46.185, 844.676 45.004 C 807.248 42.518, 614.671 41.373, 515 43.043 M 633 230.060 C 610.853 230.829, 611.197 230.762, 587.574 238.862 C 575.918 242.858, 570.804 243.845, 550.581 245.999 C 539.351 247.196, 534.401 249.056, 527.110 254.819 C 521.747 259.058, 521.135 259.263, 508.500 261.045 C 498.469 262.460, 493.744 264.510, 487.275 270.256 C 482.768 274.259, 481.063 275.051, 472.832 276.969 C 462.349 279.411, 460.004 280.610, 455 286.086 C 452.443 288.885, 449.283 290.753, 443.272 293.022 C 436.609 295.537, 433.932 297.223, 429.197 301.885 C 424.823 306.192, 422.110 307.985, 418.425 309.005 C 414.831 310.001, 411.879 311.908, 407.500 316.063 C 404.200 319.195, 399.532 322.749, 397.126 323.962 C 392.342 326.374, 387.672 330.685, 360 358.238 C 336.702 381.434, 325.769 393.562, 322.631 399.691 C 321.276 402.336, 318.105 406.506, 315.584 408.958 C 313.063 411.410, 310.996 413.885, 310.990 414.458 C 310.960 417.685, 305.343 426.799, 300.593 431.326 C 295.911 435.789, 294.859 437.516, 292.941 443.896 C 291.189 449.721, 289.663 452.455, 285.755 456.770 C 280.038 463.083, 278.864 465.563, 276.484 476.356 C 275.005 483.063, 274.091 484.956, 270.235 489.299 C 264.456 495.805, 262.269 500.837, 260.965 510.629 C 259.612 520.782, 257.786 526.213, 254.180 530.802 C 248.336 538.239, 245.038 548.982, 244.965 560.815 C 244.911 569.554, 242.587 580.542, 238.578 591 C 230.217 612.816, 228.168 639.376, 229.514 708.500 C 230.319 749.863, 230.699 752.959, 236.876 768.385 C 241.911 780.959, 243.760 789.481, 245.996 810.419 C 247.113 820.874, 249.290 827.179, 253.516 832.202 C 257.693 837.165, 258.967 840.476, 260.966 851.561 C 262.989 862.781, 265.500 868.292, 270.947 873.472 C 272.913 875.341, 274.617 878.404, 275.537 881.722 C 276.341 884.625, 277.685 889.468, 278.523 892.484 C 279.663 896.588, 281.273 899.213, 284.922 902.921 C 288.250 906.302, 290.349 909.560, 291.536 913.187 C 294.278 921.567, 296.446 925.141, 301.997 930.429 C 305.176 933.457, 308.325 937.800, 310.162 941.686 C 312.017 945.614, 314.660 949.244, 317.128 951.257 C 319.316 953.041, 322.393 956.975, 323.967 960 C 325.541 963.025, 328.930 967.525, 331.498 970 C 334.066 972.475, 337.702 976.750, 339.578 979.500 C 341.455 982.250, 347.793 989, 353.663 994.500 C 359.534 1000, 367.146 1007.365, 370.579 1010.867 C 374.012 1014.368, 378.627 1018.429, 380.834 1019.890 C 383.042 1021.352, 386.700 1024.873, 388.963 1027.717 C 392.909 1032.672, 395.864 1034.393, 405.563 1037.380 C 406.697 1037.730, 409.795 1040.280, 412.447 1043.047 C 415.098 1045.813, 420.020 1049.441, 423.384 1051.107 C 426.877 1052.837, 431.663 1056.403, 434.543 1059.419 C 439.563 1064.678, 441.266 1065.522, 453.636 1068.887 C 456.366 1069.629, 458.653 1071.167, 460.364 1073.411 C 463.973 1078.142, 468.501 1080.687, 476.576 1082.521 C 486.877 1084.860, 486.767 1084.808, 492.723 1090.202 C 499.746 1096.562, 502.643 1097.730, 514.692 1099.063 C 525.396 1100.247, 531.422 1102.407, 536.527 1106.889 C 541.931 1111.634, 549.996 1114.044, 563.996 1115.096 C 579.855 1116.287, 589.899 1118.423, 597.500 1122.220 C 611.317 1129.121, 611.363 1129.128, 649.147 1130.216 C 724.998 1132.400, 758.013 1130.108, 775.047 1121.476 C 781.080 1118.419, 789.632 1116.561, 806.978 1114.540 C 820.965 1112.910, 826.535 1111.104, 832.830 1106.158 C 838.437 1101.752, 841.828 1100.368, 850 1099.151 C 861.664 1097.413, 864.318 1096.351, 871.300 1090.627 C 876.453 1086.404, 879.217 1084.937, 884.553 1083.597 C 894.443 1081.113, 897.148 1079.752, 903.330 1074.154 C 906.843 1070.973, 910.498 1068.674, 913.199 1067.946 C 919.928 1066.134, 924.114 1063.582, 929.320 1058.117 C 932.870 1054.389, 935.767 1052.465, 940.320 1050.811 C 944.652 1049.238, 947.966 1047.104, 951.403 1043.678 C 954.099 1040.990, 958.374 1037.642, 960.903 1036.240 C 968.082 1032.257, 992.666 1009.162, 1012.825 987.461 C 1017.403 982.533, 1024.004 975.575, 1027.494 972 C 1030.983 968.425, 1034.836 963.475, 1036.057 961 C 1037.278 958.525, 1040.577 953.993, 1043.388 950.930 C 1046.678 947.345, 1049.165 943.424, 1050.364 939.930 C 1051.733 935.944, 1053.801 932.945, 1058.139 928.653 C 1064.877 921.987, 1066.221 919.746, 1068.335 911.649 C 1069.506 907.166, 1070.978 904.659, 1074.837 900.579 C 1079.720 895.416, 1082.116 890.087, 1084.485 879.125 C 1084.919 877.115, 1087.371 873.403, 1090.549 869.947 C 1096.355 863.632, 1097.341 861.093, 1098.900 848.457 C 1100.132 838.464, 1101.111 835.862, 1106.144 829.195 C 1112.693 820.519, 1113.141 818.737, 1115.976 790.148 C 1116.662 783.234, 1117.833 777.837, 1119.501 773.898 C 1120.876 770.654, 1123.107 765.389, 1124.460 762.198 C 1135.092 737.119, 1132.785 621.350, 1121.073 592.302 C 1117.979 584.626, 1116.781 579.951, 1115.971 572.386 C 1113.288 547.322, 1112.852 544.628, 1110.835 540.648 C 1109.679 538.367, 1107.437 534.852, 1105.853 532.838 C 1101.665 527.516, 1100.383 523.782, 1098.593 511.693 C 1096.784 499.480, 1095.499 496.400, 1089.535 489.971 C 1085.923 486.078, 1085.012 484.142, 1083.047 476.190 C 1080.920 467.580, 1080.352 466.487, 1074.880 460.449 C 1071.646 456.880, 1069 453.342, 1069 452.585 C 1069 446.481, 1064.579 437.523, 1058.941 432.202 C 1054.221 427.746, 1052.495 425.221, 1050.367 419.653 C 1048.530 414.846, 1046.391 411.413, 1043.472 408.591 C 1041.145 406.341, 1038.020 402.025, 1036.528 399 C 1035.036 395.975, 1030.924 390.575, 1027.392 387 C 1023.859 383.425, 1014.140 373.139, 1005.795 364.142 C 997.450 355.146, 988.377 345.921, 985.635 343.642 C 982.892 341.364, 976.935 336.012, 972.397 331.750 C 967.859 327.488, 963.672 324, 963.092 324 C 962.512 324, 958.928 321.067, 955.128 317.481 C 949.621 312.287, 946.926 310.543, 941.859 308.895 C 936.750 307.233, 934.395 305.698, 929.880 301.084 C 925.621 296.731, 922.716 294.767, 917.880 292.969 C 913.756 291.435, 909.732 288.948, 906.500 285.936 C 900.146 280.013, 899.304 279.600, 888.325 277.023 C 880.086 275.088, 878.632 274.377, 873.074 269.564 C 866.796 264.127, 861.371 261.887, 851 260.446 C 843.459 259.399, 839.724 257.923, 834.450 253.909 C 827.230 248.414, 823.371 247.095, 811.244 245.979 C 786.713 243.721, 781.366 242.790, 768 238.454 C 745.916 231.288, 743.926 230.968, 715.500 229.996 C 686.254 228.997, 663.079 229.015, 633 230.060 M 2231.982 295.953 C 2206.076 302.740, 2203.271 307.312, 2201.892 345 C 2201.392 358.669, 2199.685 381.658, 2198.030 397 C 2196.252 413.484, 2194.656 435.516, 2194.046 452 C 2193.486 467.125, 2192.543 492.550, 2191.951 508.500 C 2187.728 622.162, 2188.270 820.079, 2192.933 867.500 C 2194.068 879.050, 2195.677 896.026, 2196.507 905.225 C 2197.338 914.424, 2198.669 925.051, 2199.467 928.842 C 2200.264 932.632, 2201.406 943.556, 2202.004 953.117 C 2203.248 973.017, 2204.039 975.401, 2213.384 987.409 C 2219.760 995.604, 2220.439 995.998, 2234.038 999.379 C 2245.789 1002.301, 2252.852 1002.664, 2258.624 1000.643 C 2260.756 999.896, 2266.325 998.736, 2271 998.064 C 2282.183 996.457, 2286.810 994.328, 2290.410 989.132 C 2292.010 986.822, 2296.212 982.659, 2299.746 979.881 C 2307.074 974.122, 2308.255 971.880, 2310.384 959.685 C 2311.443 953.618, 2313.316 948.030, 2316.568 941.241 C 2325.204 923.209, 2325.903 904.105, 2325.907 686 C 2325.911 444.932, 2324.556 409.695, 2313.901 373.828 C 2311.858 366.952, 2310.652 360.043, 2309.997 351.467 C 2308.425 330.869, 2287.152 303.079, 2269.812 298.971 C 2266.890 298.279, 2260.933 296.652, 2256.574 295.356 C 2246.835 292.461, 2245.152 292.502, 2231.982 295.953 M 2475.500 296.476 C 2452.548 301.321, 2443.408 310.612, 2441.536 331 C 2441.208 334.575, 2440.285 343.800, 2439.485 351.500 C 2435.312 391.673, 2432.854 623.239, 2435.988 681 C 2436.877 697.381, 2437.554 711.886, 2439.979 766.500 C 2440.517 778.600, 2441.405 816.625, 2441.954 851 C 2443.558 951.545, 2443.443 950.143, 2451.396 966.500 C 2454.338 972.550, 2457.505 979.837, 2458.434 982.694 C 2460.954 990.442, 2463.905 994.203, 2469.024 996.191 C 2498.368 1007.589, 2497.071 1007.357, 2508.252 1003.189 C 2512.788 1001.497, 2519.398 999.379, 2522.940 998.480 C 2538.476 994.540, 2547.280 985.555, 2550.611 970.241 C 2551.360 966.799, 2553.988 959.585, 2556.452 954.211 C 2567.866 929.310, 2570.812 416.373, 2559.644 398.231 C 2558.239 395.948, 2550.801 354.252, 2549.586 341.846 C 2547.908 324.715, 2546.920 322.291, 2539.735 317.690 C 2536.856 315.847, 2532.244 311.867, 2529.486 308.847 C 2522.465 301.157, 2520.908 300.361, 2508.500 298.123 C 2502.450 297.031, 2495.475 295.668, 2493 295.093 C 2487.426 293.800, 2488.627 293.705, 2475.500 296.476 M 4126.500 332.655 C 4125.400 332.888, 4123.510 333.288, 4122.301 333.545 C 4121.092 333.802, 4117.661 336.147, 4114.678 338.756 C 4111.695 341.365, 4106.159 345.121, 4102.377 347.101 L 4095.500 350.702 4089.987 361.601 C 4086.956 367.596, 4083.255 374.233, 4081.764 376.351 C 4075.980 384.566, 4076.482 398.062, 4082.952 408.307 C 4085.308 412.036, 4088.514 418.556, 4090.077 422.794 C 4092.397 429.087, 4093.797 431.260, 4097.709 434.645 C 4103.638 439.775, 4104.225 440.362, 4109.355 446.291 C 4112.711 450.170, 4114.928 451.609, 4121 453.851 C 4125.125 455.375, 4131.610 458.500, 4135.412 460.796 C 4145.831 467.088, 4153.771 467.619, 4163.627 462.683 C 4195.465 446.738, 4193.618 448.495, 4199.690 428.378 C 4205.554 408.952, 4206.044 403.291, 4202.639 394.315 C 4201.217 390.567, 4199.337 384.377, 4198.461 380.560 C 4196.105 370.292, 4194.485 367.133, 4188.717 361.550 C 4185.848 358.773, 4182.218 354.781, 4180.651 352.680 C 4178.612 349.945, 4175.650 347.879, 4170.227 345.407 C 4166.060 343.508, 4160.656 340.320, 4158.218 338.323 C 4151.338 332.684, 4137.800 330.265, 4126.500 332.655 M 666.165 414.078 C 653.123 415.079, 647.464 416.297, 639.136 419.896 C 628.761 424.379, 626.349 424.934, 610.796 426.422 C 594.721 427.959, 590.964 429.220, 582.654 435.866 C 579.989 437.997, 575.939 440.300, 573.654 440.983 C 566.510 443.119, 560.620 446.635, 557.341 450.721 C 555.507 453.006, 551.312 456.170, 547.341 458.263 C 543.578 460.246, 538.700 463.739, 536.500 466.026 C 534.300 468.313, 530.475 471.586, 528 473.298 C 523.888 476.143, 517.482 482.422, 498.784 501.937 C 495.090 505.793, 491.189 510.647, 490.115 512.724 C 489.040 514.801, 485.838 518.750, 482.997 521.500 C 480.157 524.250, 476.471 529.200, 474.808 532.500 C 473.144 535.800, 469.651 540.525, 467.045 543 C 461.884 547.903, 459.561 551.748, 457.435 558.906 C 456.642 561.578, 454.062 565.883, 451.370 569.028 C 445.773 575.566, 443.760 579.901, 441.473 590.349 C 440.158 596.356, 438.633 599.877, 434.976 605.349 C 428.810 614.575, 427.377 620.011, 425.979 639.500 C 425.296 649.008, 423.851 659.656, 422.415 665.742 C 419.847 676.631, 419.407 685.529, 420.947 695.418 C 423.933 714.594, 426.061 730.951, 426.982 741.813 C 428.153 755.630, 429.414 759.502, 434.618 765.262 C 439.088 770.210, 441.503 775.593, 443.004 783.958 C 444.480 792.177, 445.833 794.728, 450.859 798.767 C 453.691 801.043, 456.027 804.380, 458.557 809.767 C 460.560 814.032, 464.136 819.518, 466.531 822 C 468.919 824.475, 472.005 828.525, 473.388 831 C 477.821 838.928, 503.664 866.052, 510.437 869.886 C 513.222 871.463, 517.590 875.027, 520.145 877.808 C 522.807 880.707, 527.398 884.182, 530.902 885.951 C 534.264 887.648, 538.917 891.057, 541.241 893.527 C 544.409 896.893, 547.685 898.937, 554.327 901.690 C 559.776 903.948, 564.979 906.966, 567.843 909.530 C 572.742 913.914, 577.256 915.721, 590.163 918.467 C 596.295 919.772, 599.256 921.103, 604.990 925.129 C 613.818 931.329, 619.081 932.506, 644.334 933.928 C 654.143 934.481, 666.915 935.706, 672.717 936.652 C 681.777 938.128, 684.553 938.201, 692.383 937.168 C 701.343 935.986, 711.190 935.092, 738 933.024 C 755.096 931.705, 757.283 931.066, 765.546 924.966 C 771.996 920.205, 774.448 919.211, 787.458 916.087 C 791.120 915.208, 793.784 913.603, 797.644 909.952 C 800.760 907.005, 805.855 903.649, 810.255 901.643 C 815.741 899.143, 818.632 897.066, 821.506 893.558 C 824.030 890.478, 827.657 887.677, 831.938 885.504 C 838.954 881.942, 865.626 856.721, 870.437 849.099 C 871.724 847.061, 874.822 843.444, 877.321 841.062 C 879.820 838.681, 883.317 834.007, 885.092 830.675 C 886.868 827.344, 890.489 822.621, 893.139 820.180 C 896.827 816.783, 898.725 813.860, 901.229 807.722 C 903.415 802.363, 906.190 797.808, 909.595 793.987 C 914.237 788.780, 914.886 787.435, 916.877 778.885 C 918.942 770.024, 920.450 766.669, 927.405 755.472 C 931.288 749.221, 932.755 742.312, 933.534 726.612 C 933.892 719.401, 935.043 707.793, 936.092 700.817 C 938.378 685.622, 938.538 668.614, 936.506 656.995 C 935.687 652.317, 934.374 639.939, 933.588 629.488 C 932.007 608.483, 930.964 604.256, 925.778 597.855 C 920.743 591.641, 919.328 588.422, 917.057 578.017 C 915.122 569.152, 914.818 568.560, 909.023 562.365 C 905.710 558.824, 902.996 555.381, 902.990 554.713 C 902.964 551.440, 897.511 542.322, 893.433 538.732 C 890.943 536.540, 887.745 532.456, 886.326 529.657 C 884.908 526.858, 880.992 521.650, 877.624 518.084 C 858.391 497.719, 854.010 493.505, 849.264 490.804 C 846.384 489.165, 842.086 485.665, 839.712 483.025 C 837.018 480.028, 832.742 476.888, 828.331 474.667 C 824.060 472.516, 819.730 469.367, 817.383 466.705 C 813.027 461.765, 810.145 460.064, 801.604 457.389 C 797.833 456.208, 794.048 454.055, 791.104 451.417 C 784.974 445.924, 781.441 444.228, 771.685 442.096 C 762.419 440.071, 758.321 438.225, 752.346 433.387 C 746.817 428.910, 744.705 428.210, 731.510 426.480 C 719.162 424.862, 716.104 423.965, 704.653 418.604 C 693.310 413.293, 686.629 412.507, 666.165 414.078 M 1821.500 509.113 C 1807.298 510.188, 1801.362 511.350, 1793.719 514.548 C 1780.346 520.146, 1776.863 521.014, 1762.154 522.421 C 1744.550 524.104, 1740.254 525.237, 1735.242 529.518 C 1730.256 533.777, 1724.729 536.497, 1716.984 538.504 C 1708.738 540.641, 1706.332 541.976, 1701.687 546.991 C 1699.330 549.536, 1695.113 552.366, 1690.645 554.402 C 1684.121 557.375, 1676 564.429, 1676 567.122 C 1676 567.540, 1673.272 569.983, 1669.937 572.549 C 1665.763 575.760, 1662.226 579.768, 1658.585 585.412 C 1655.676 589.921, 1651.716 594.935, 1649.785 596.555 C 1645.447 600.194, 1644.774 601.495, 1642.061 611.500 C 1640.556 617.048, 1638.408 621.703, 1635.051 626.688 C 1627.462 637.957, 1627.245 649.562, 1634.382 662.433 C 1639.674 671.977, 1640.745 674.066, 1643.966 681.131 C 1647.613 689.131, 1648.042 689.430, 1666.140 696.558 C 1682.468 702.989, 1684.959 703.151, 1695.500 698.469 C 1698.800 697.003, 1705.500 694.930, 1710.388 693.863 C 1721.158 691.512, 1721.952 691.111, 1726.020 685.974 C 1727.789 683.741, 1731.995 680.063, 1735.368 677.800 C 1738.741 675.537, 1743.677 671.276, 1746.339 668.333 C 1749 665.389, 1753.275 661.791, 1755.839 660.337 C 1758.402 658.883, 1762.811 655.331, 1765.635 652.444 C 1770.078 647.902, 1771.559 647.038, 1776.635 646.030 C 1792.714 642.837, 1795.320 641.978, 1799.613 638.461 C 1807.809 631.745, 1811.405 630.792, 1832.580 629.721 C 1858.777 628.396, 1889.418 629.818, 1893.671 632.556 C 1917.532 647.918, 1918.983 649.852, 1918.994 666.308 C 1919.011 689.552, 1914.992 697.407, 1901.479 700.541 C 1897.306 701.509, 1893.102 703.367, 1889.931 705.645 C 1881.002 712.060, 1875.907 713.012, 1845 714.040 C 1804.455 715.390, 1801.470 715.868, 1789.040 723.009 C 1779.473 728.505, 1775.104 729.716, 1760.090 731.036 C 1747.289 732.161, 1743.874 733.215, 1737.500 738.006 C 1729.687 743.879, 1725.636 745.388, 1709.242 748.537 C 1707.450 748.881, 1703.625 751.082, 1700.742 753.429 C 1693.942 758.964, 1690.802 760.516, 1683.500 761.952 C 1673.403 763.937, 1671.610 764.820, 1666.042 770.549 C 1662.876 773.806, 1658.014 777.401, 1654.220 779.289 C 1648.708 782.032, 1647.167 783.437, 1643.567 788.998 C 1641.252 792.574, 1637.273 797.075, 1634.725 799 C 1629.873 802.665, 1626.855 808.070, 1625.538 815.453 C 1624.675 820.292, 1621.799 826.069, 1617.353 831.894 C 1608.379 843.653, 1608.522 902.670, 1617.553 914.501 C 1622.073 920.423, 1623.557 923.503, 1625.496 930.984 C 1627.719 939.563, 1630.187 944.142, 1634.263 947.252 C 1636.130 948.676, 1639.419 952.606, 1641.572 955.985 C 1644.145 960.024, 1647.270 963.312, 1650.695 965.586 C 1653.560 967.488, 1657.999 971.256, 1660.559 973.959 C 1664.178 977.782, 1666.827 979.464, 1672.479 981.525 C 1677.006 983.176, 1682.036 986.029, 1685.824 989.094 C 1693.652 995.428, 1694.562 995.732, 1710.825 997.462 C 1721.169 998.562, 1726.936 999.764, 1734.500 1002.397 C 1753.314 1008.946, 1762.728 1010.268, 1785 1009.485 C 1805.047 1008.781, 1805.807 1008.654, 1826.500 1002.544 C 1838.199 999.089, 1843.135 998.172, 1856.233 997.023 C 1868.264 995.967, 1873.219 994.220, 1879.747 988.733 C 1884.675 984.591, 1890.026 982.650, 1902.370 980.528 C 1907.737 979.606, 1914.451 977.547, 1919.370 975.314 C 1931.307 969.896, 1937.479 969.637, 1944.310 974.270 C 1947.165 976.205, 1950.625 978.120, 1952 978.524 C 1957.894 980.257, 1964.150 984.303, 1968.177 988.988 C 1973.183 994.810, 1976.530 996.279, 1989.800 998.477 C 1994.957 999.331, 2001.296 1001.130, 2004.029 1002.515 C 2021.351 1011.292, 2034.167 1012.135, 2045.582 1005.247 C 2049.459 1002.907, 2055.407 1000.056, 2058.799 998.910 C 2075.270 993.348, 2079.674 963.632, 2073.456 900 C 2071.442 879.394, 2070.781 864.905, 2070.008 824.500 C 2068.289 734.564, 2066.460 713.341, 2057.473 679 C 2055.535 671.596, 2054.650 664.206, 2053.459 645.500 C 2051.735 618.434, 2051.153 615.384, 2046.468 608.840 C 2041.724 602.212, 2039.348 597.179, 2038.520 592 C 2037.353 584.699, 2034.370 579.138, 2029.057 574.362 C 2026.315 571.896, 2022.434 567.184, 2020.433 563.890 C 2017.675 559.349, 2015.524 557.184, 2011.537 554.934 C 2008.644 553.301, 2003.546 549.301, 2000.207 546.044 C 1995.257 541.216, 1992.930 539.750, 1987.601 538.104 C 1979.907 535.727, 1975.574 533.615, 1971.616 530.312 C 1966.173 525.768, 1961.316 524.018, 1951.282 522.986 C 1935.227 521.335, 1931.547 520.487, 1912 513.940 C 1895.074 508.270, 1858.431 506.316, 1821.500 509.113 M 3713 509.963 C 3702.149 511.147, 3683.695 514.868, 3675.029 517.618 C 3665.186 520.742, 3659.112 521.773, 3643.840 522.912 C 3629.947 523.948, 3627.248 524.882, 3620.147 531.113 C 3616.378 534.421, 3606.958 539, 3603.923 539 C 3601.456 539, 3594.876 543.296, 3592.429 546.505 C 3590.623 548.872, 3587.038 551.312, 3581.502 553.942 C 3574.424 557.305, 3572.306 558.954, 3566.469 565.647 C 3562.732 569.931, 3557.563 575.358, 3554.982 577.707 C 3550.228 582.034, 3547.482 586.625, 3544.476 595.272 C 3543.564 597.897, 3540.902 602.622, 3538.560 605.772 C 3527.832 620.203, 3527.553 661.964, 3538.106 673.617 C 3540.769 676.558, 3544.088 681.214, 3545.482 683.964 C 3548.680 690.275, 3550.606 691.503, 3562.887 695.063 C 3577.556 699.314, 3579.531 699.472, 3589.076 697.154 C 3593.709 696.029, 3601.046 694.366, 3605.380 693.457 C 3612.695 691.924, 3613.708 691.388, 3619.534 685.968 C 3622.986 682.757, 3628.041 679, 3630.768 677.618 C 3633.497 676.235, 3637.582 672.888, 3639.856 670.172 C 3642.565 666.936, 3646.169 664.154, 3650.333 662.083 C 3653.887 660.316, 3658.795 656.721, 3661.484 653.915 C 3667.559 647.576, 3669.758 646.468, 3680.433 644.371 C 3687.433 642.995, 3690.598 641.727, 3696.795 637.814 C 3715.392 626.070, 3771.467 625.428, 3787.867 636.770 C 3790.965 638.913, 3796.200 642.186, 3799.500 644.044 C 3822.120 656.778, 3826.049 674.125, 3809.466 688.038 C 3798.466 697.268, 3796.903 698.085, 3788.239 699.131 C 3778.185 700.346, 3775.102 701.396, 3768.749 705.768 C 3760.504 711.442, 3755.476 712.866, 3738.049 714.465 C 3718.986 716.214, 3711.061 717.931, 3702.803 722.100 C 3690.887 728.115, 3685.796 729.230, 3662.376 730.958 C 3647.127 732.083, 3642.311 733.323, 3635.739 737.819 C 3628.396 742.842, 3625.264 744.016, 3613.733 746.067 C 3598.725 748.735, 3596.820 749.439, 3590.874 754.515 C 3587.858 757.089, 3582.456 760.199, 3577.639 762.133 C 3572.098 764.358, 3567.904 766.886, 3564.500 770.052 C 3561.750 772.610, 3556.958 776.310, 3553.851 778.275 C 3550.744 780.239, 3546.859 783.793, 3545.217 786.173 C 3543.576 788.553, 3540.324 792.028, 3537.993 793.896 C 3534.954 796.331, 3532.799 799.385, 3530.388 804.677 C 3528.537 808.739, 3525.055 814.185, 3522.651 816.781 C 3514.558 825.517, 3513.397 834.183, 3514.381 878.500 C 3515.204 915.543, 3515.445 916.792, 3523.842 927.425 C 3527.298 931.801, 3528.686 934.817, 3530.646 942.211 C 3532.980 951.016, 3533.436 951.839, 3539.402 958 C 3542.864 961.575, 3547.844 967.196, 3550.470 970.491 C 3556.275 977.777, 3557.144 978.405, 3567.190 982.579 C 3571.574 984.400, 3577.036 987.423, 3579.330 989.297 C 3586.040 994.780, 3589.559 996.111, 3599.868 997.063 C 3613.877 998.357, 3616.251 998.833, 3629.500 1003.004 C 3659.149 1012.338, 3690.225 1012.135, 3722.771 1002.395 C 3731.333 999.833, 3737.858 998.673, 3749.917 997.568 C 3767.362 995.970, 3770.327 995.083, 3778.277 989.081 C 3784.779 984.172, 3786.507 983.541, 3800.177 981.092 C 3807.091 979.853, 3813.736 977.877, 3819.034 975.485 C 3831.479 969.866, 3836.720 969.749, 3845.167 974.900 C 3848.834 977.136, 3854.459 979.937, 3857.667 981.124 C 3862.082 982.757, 3864.960 984.796, 3869.507 989.514 C 3875.965 996.216, 3875.374 995.976, 3892.951 999.051 C 3896.541 999.679, 3902.898 1001.938, 3907.288 1004.145 C 3921.430 1011.255, 3937.961 1011.502, 3948.294 1004.756 C 3951.037 1002.965, 3956.930 999.700, 3961.390 997.500 C 3973.864 991.347, 3973.429 992.797, 3973.843 956 C 3974.826 868.680, 3971.632 775.343, 3966.889 752.754 C 3959.732 718.667, 3958.954 713.167, 3957.947 689.500 C 3956.279 650.335, 3954.978 640.544, 3949.969 629.500 C 3945.086 618.732, 3944.033 615.355, 3941.907 603.638 C 3939.704 591.502, 3938.911 589.627, 3932.974 582.530 C 3930.687 579.796, 3927.896 575.746, 3926.771 573.530 C 3922.564 565.238, 3918.762 560.900, 3911.275 555.848 C 3907.082 553.018, 3901.645 548.697, 3899.193 546.245 C 3894.359 541.412, 3891.456 539.932, 3883 537.993 C 3876.215 536.437, 3872.709 534.730, 3867.298 530.348 C 3860.985 525.235, 3856.295 524.061, 3835.758 522.455 C 3820.194 521.238, 3815.351 520.464, 3807.429 517.926 C 3785.978 511.055, 3739.165 507.107, 3713 509.963 M 2878 514.054 C 2861.063 517.275, 2827.832 521.910, 2814.281 522.942 C 2799.739 524.048, 2795.601 525.321, 2789.954 530.423 C 2785.017 534.883, 2783.434 535.676, 2772.841 538.997 C 2765.694 541.238, 2762.997 542.664, 2759.211 546.206 C 2756.615 548.634, 2751.637 552.142, 2748.149 554.001 C 2744.661 555.860, 2740.163 559.207, 2738.154 561.439 C 2736.144 563.670, 2730.385 569.547, 2725.355 574.498 C 2720.326 579.449, 2715.216 585.488, 2713.999 587.918 C 2712.783 590.349, 2709.639 594.429, 2707.013 596.987 C 2701.762 602.102, 2700.155 604.797, 2697.481 612.973 C 2696.304 616.572, 2694.079 620.168, 2690.983 623.473 C 2684.857 630.014, 2684.250 631.303, 2682.459 641.577 C 2680.753 651.358, 2680.310 652.409, 2674.735 659.894 C 2669.166 667.371, 2668.089 671.729, 2666.425 693.500 C 2665.575 704.613, 2663.964 717.066, 2662.543 723.500 C 2656.707 749.929, 2657.221 777.667, 2663.978 800.962 C 2664.530 802.867, 2665.475 811.642, 2666.078 820.462 C 2667.620 843.030, 2668.991 849.003, 2674.460 856.977 C 2680.132 865.250, 2681.681 869.053, 2683.088 878.164 C 2684.462 887.063, 2685.550 889.246, 2691.405 894.851 C 2694.836 898.137, 2696.630 901.047, 2698.725 906.729 C 2700.858 912.515, 2702.607 915.319, 2706.286 918.857 C 2708.918 921.388, 2712.234 925.943, 2713.655 928.979 C 2717.145 936.435, 2743.064 962.479, 2750.994 966.497 C 2753.970 968.005, 2758.514 971.337, 2761.093 973.902 C 2764.497 977.288, 2767.386 979.069, 2771.640 980.402 C 2779.814 982.964, 2784.918 985.656, 2789 989.557 C 2794.112 994.443, 2798.300 995.797, 2813.532 997.486 C 2823.381 998.578, 2828.917 999.723, 2833.350 1001.587 C 2853.023 1009.859, 2873.081 1012.486, 2909.500 1011.559 C 2941.283 1010.749, 2946.865 1010.014, 2958.430 1005.111 C 2971.698 999.485, 2973.012 999.172, 2990.244 997.531 C 3007.757 995.863, 3011.118 994.827, 3017.653 989.074 C 3022.471 984.833, 3027.635 982.771, 3037.958 980.966 C 3045.944 979.569, 3048.453 978.279, 3053.380 973.034 C 3055.608 970.662, 3060.292 967.461, 3064.380 965.516 C 3069.316 963.167, 3072.669 960.724, 3075.311 957.550 C 3077.407 955.033, 3081.574 951.162, 3084.570 948.949 C 3087.879 946.504, 3091.560 942.487, 3093.948 938.712 C 3096.111 935.296, 3099.910 930.808, 3102.392 928.740 C 3107.032 924.874, 3107.376 924.123, 3111.436 908.994 C 3112.249 905.966, 3114.973 900.269, 3117.491 896.335 C 3125.863 883.248, 3126.032 873.803, 3118.109 861.754 C 3115.485 857.764, 3112.105 852.548, 3110.597 850.162 C 3105.376 841.901, 3086.587 837.437, 3069.188 840.323 C 3063.860 841.207, 3057.025 842.202, 3054 842.533 C 3045.373 843.479, 3039.668 845.713, 3035.924 849.610 C 3031.633 854.078, 3027.370 856.242, 3018.611 858.397 C 3010.115 860.488, 3006.504 862.262, 3002 866.561 C 2997.071 871.265, 2991.047 873.622, 2979.500 875.364 C 2967.536 877.168, 2964.148 878.276, 2957.275 882.632 C 2946.729 889.315, 2945.362 889.500, 2906.469 889.500 C 2867.289 889.500, 2868.060 889.619, 2857.500 881.918 C 2854.750 879.913, 2850.361 877.754, 2847.747 877.121 C 2832.364 873.395, 2827.316 869.738, 2819.416 856.595 C 2816.409 851.593, 2812.411 845.351, 2810.532 842.724 C 2800.992 829.389, 2805.674 820.866, 2822.855 820.290 C 2829.351 820.073, 2834.205 819.319, 2837.820 817.966 C 2866.652 807.179, 2873.760 806.410, 2958 804.963 C 3040.870 803.540, 3053.382 802.534, 3069.644 795.991 C 3073.965 794.252, 3082.669 791.751, 3088.986 790.434 C 3102.116 787.695, 3104.219 786.450, 3108.843 778.681 C 3110.682 775.591, 3114.390 770.687, 3117.084 767.782 C 3127.908 756.106, 3128.532 686.932, 3117.960 670.500 C 3112.970 662.745, 3111.427 658.938, 3110.053 650.993 C 3107.161 634.280, 3107.085 634.075, 3101.539 628.043 C 3097.260 623.388, 3095.742 620.723, 3093.485 613.904 C 3091.215 607.049, 3089.842 604.647, 3086.030 600.871 C 3083.351 598.216, 3079.756 593.001, 3077.605 588.646 C 3075.159 583.696, 3072.505 579.984, 3069.984 577.988 C 3067.858 576.303, 3063.168 571.360, 3059.563 567.003 C 3055.877 562.547, 3050.296 557.238, 3046.809 554.870 C 3043.399 552.554, 3038.542 548.527, 3036.015 545.919 C 3031.425 541.182, 3030.249 540.648, 3016.500 537.066 C 3014.300 536.493, 3010.250 534.216, 3007.500 532.007 C 2998.845 525.054, 2995.324 523.887, 2980.173 522.944 C 2965.210 522.014, 2934.401 517.746, 2912 513.501 C 2902.110 511.626, 2889.701 511.828, 2878 514.054 M 4130.500 516.536 C 4126.650 517.944, 4119.271 520.204, 4114.102 521.558 C 4086.484 528.793, 4076.599 552.081, 4074.865 614 C 4070.730 761.609, 4075.390 936.725, 4083.918 954.246 C 4086.128 958.786, 4088.798 966.134, 4089.852 970.576 C 4093.630 986.495, 4101.463 994.531, 4117.044 998.471 C 4120.595 999.369, 4127.026 1001.430, 4131.335 1003.052 C 4141.479 1006.869, 4143.992 1006.775, 4155.729 1002.147 C 4161.103 1000.027, 4167.664 997.505, 4170.309 996.541 C 4176.692 994.216, 4178.215 992.377, 4181.948 982.487 C 4183.683 977.890, 4186.274 972.412, 4187.706 970.314 C 4195.789 958.471, 4195.751 958.972, 4197.135 845.500 C 4199.641 639.927, 4197.397 561.157, 4188.662 548.138 C 4186.073 544.278, 4183.327 539.344, 4182.561 537.174 C 4178.721 526.290, 4177.187 525.016, 4162.945 520.889 C 4157.366 519.271, 4151.566 517.310, 4150.057 516.529 C 4144.692 513.755, 4138.095 513.757, 4130.500 516.536 M 683.090 571.589 C 680.665 572.466, 677.065 574.247, 675.090 575.548 C 671.763 577.739, 661.598 580.993, 658.040 581.006 C 653.432 581.022, 648.182 583.634, 643.076 588.449 C 640.009 591.341, 635.250 594.986, 632.500 596.548 C 624.501 601.094, 621.322 603.821, 615.803 610.872 C 612.949 614.518, 608.381 619.750, 605.651 622.500 C 599.147 629.050, 597.340 633.412, 596.092 645.568 C 595.524 651.102, 594.119 658.526, 592.970 662.065 C 589.253 673.509, 589.215 683.998, 592.846 696.121 C 594.556 701.830, 596.436 710.507, 597.025 715.404 C 598.253 725.630, 598.777 726.874, 604.437 733 C 606.723 735.475, 610.641 740.670, 613.144 744.545 C 615.746 748.573, 620.830 754.355, 625.016 758.045 C 629.043 761.595, 635.299 767.274, 638.919 770.664 C 645.609 776.929, 649.426 778.927, 658.669 781.001 C 661.532 781.643, 666.790 784.099, 670.452 786.505 C 684.251 795.568, 702.716 795.409, 711.411 786.153 C 713.028 784.432, 716.587 782.314, 719.411 781.391 C 722.210 780.477, 725.850 779.047, 727.500 778.214 C 732.223 775.828, 759.707 748.148, 763.953 741.500 C 766.061 738.200, 769.447 733.925, 771.478 732 C 776.262 727.465, 777.686 724.622, 779.506 715.973 C 781.190 707.964, 781.829 706.551, 786.576 700.332 C 795.581 688.535, 795.171 671.328, 785.566 657.958 C 783.366 654.896, 781.347 650.458, 780.447 646.702 C 777.497 634.401, 776.856 632.952, 771.856 627.269 C 769.064 624.096, 765.062 618.984, 762.961 615.910 C 759.136 610.311, 732.407 584.358, 728.079 582.042 C 726.814 581.365, 722.728 579.966, 718.999 578.933 C 715.270 577.899, 709.856 575.585, 706.968 573.789 C 700.593 569.826, 690.528 568.899, 683.090 571.589 M 2885.907 631.066 C 2878.593 632.142, 2871.440 634.913, 2865.592 638.937 C 2862.166 641.294, 2858.758 642.553, 2853.165 643.530 C 2848.926 644.270, 2844.283 645.322, 2842.847 645.868 C 2838.826 647.397, 2823.312 661.871, 2819.393 667.750 C 2817.468 670.638, 2814.313 674.238, 2812.381 675.750 C 2807.876 679.278, 2798 694.134, 2798 697.383 C 2798 699.845, 2798.108 699.876, 2808.250 700.289 C 2822.989 700.890, 2847.456 702.871, 2854.805 704.059 C 2890.340 709.801, 2951.659 711.975, 2968 708.072 C 2988.203 703.247, 2992.026 696.769, 2986.138 677.339 C 2984.014 670.328, 2982.561 668.248, 2975.203 661.689 C 2973.469 660.143, 2970.801 657.034, 2969.275 654.780 C 2965.206 648.771, 2962.510 647.201, 2951.639 644.509 C 2945.551 643.002, 2940.113 640.938, 2937.276 639.059 C 2925.475 631.243, 2905.667 628.161, 2885.907 631.066 M 3261.500 692.536 C 3240.591 695.960, 3224.668 698.084, 3216 698.607 C 3202.629 699.414, 3200.791 700.201, 3191.071 709.277 C 3178.888 720.654, 3178.894 720.637, 3179.246 743 C 3179.561 762.995, 3179.808 764.057, 3186.004 772 C 3187.505 773.925, 3189.650 777.300, 3190.770 779.500 C 3193.456 784.779, 3196.608 787.597, 3201.919 789.471 C 3207.378 791.397, 3212.403 794.475, 3217.297 798.891 C 3224.137 805.064, 3225.197 805.163, 3290 805.722 C 3374.038 806.446, 3395.035 805.077, 3403.633 798.310 C 3409.384 793.783, 3414.628 791.426, 3423.139 789.541 C 3437.609 786.336, 3457.870 763.333, 3459.680 748.055 C 3461.285 734.502, 3450.378 717.570, 3436.478 712.038 C 3433.190 710.729, 3428.222 708.173, 3425.438 706.357 C 3416.083 700.255, 3414.413 699.900, 3388.040 698.419 C 3365.356 697.145, 3358.762 696.423, 3333.376 692.434 C 3321.505 690.568, 3273.099 690.637, 3261.500 692.536 M 3800.500 789.677 C 3789.002 792.233, 3781.468 794.744, 3775.453 798.026 C 3767.848 802.174, 3755.785 804.996, 3745.619 805.004 C 3732.692 805.013, 3719.204 808.521, 3707.515 814.913 C 3699.968 819.040, 3692.751 821, 3685.100 821 C 3668.087 821, 3651.811 839.564, 3652.148 858.584 C 3652.255 864.588, 3652.224 872.425, 3652.079 876 C 3651.645 886.724, 3665.916 905.198, 3676.646 907.803 C 3693.209 911.823, 3719.513 912.408, 3743.500 909.290 C 3752.850 908.075, 3764.805 906.624, 3770.067 906.066 C 3780.891 904.918, 3784.579 903.631, 3791 898.760 C 3793.475 896.883, 3799.032 892.975, 3803.349 890.076 C 3814.686 882.463, 3816.708 876.693, 3819.072 845.218 C 3821.199 816.891, 3821.502 814.645, 3823.789 810.290 C 3831.053 796.458, 3818.796 785.609, 3800.500 789.677 M 1897.500 790.990 C 1890.096 792.087, 1877.990 795.584, 1867.647 799.615 C 1860.781 802.290, 1856.006 803.414, 1848.500 804.118 C 1826.634 806.171, 1821.529 807.827, 1812 815.956 C 1809.379 818.193, 1806.492 819.341, 1800.500 820.529 C 1789.821 822.647, 1787.682 823.572, 1783.026 828.090 C 1780.849 830.203, 1776.915 833.061, 1774.284 834.442 C 1768.233 837.616, 1767.078 838.589, 1763.524 843.500 C 1761.931 845.700, 1758.350 849.878, 1755.564 852.784 L 1750.500 858.068 1750.156 866.328 C 1749.662 878.181, 1751.068 882.457, 1757.447 888.500 C 1760.350 891.250, 1763.854 895.300, 1765.233 897.500 C 1769.045 903.581, 1770.826 904.724, 1780.537 907.326 C 1785.467 908.646, 1793.100 911.578, 1797.500 913.840 C 1814.569 922.617, 1832.157 921.667, 1851.201 910.940 C 1853.236 909.793, 1858.636 908.218, 1863.201 907.439 C 1875.798 905.290, 1875.864 905.263, 1881.878 899.664 C 1884.970 896.786, 1888.844 893.772, 1890.486 892.966 C 1892.128 892.160, 1895.278 889.559, 1897.486 887.186 C 1899.694 884.813, 1904.101 880.223, 1907.280 876.987 C 1913.409 870.746, 1915.326 867.230, 1916.507 860.064 C 1917.061 856.703, 1918.389 854.400, 1921.982 850.564 C 1929.070 842.996, 1929.271 842.333, 1930.014 824.088 C 1931.327 791.803, 1926.333 786.719, 1897.500 790.990" stroke="none" fill="#fcfcfc" fill-rule="evenodd"/></svg>